# xmcd
#
# Track frame offsets: 
#        150
#        10875
#        26825
#        43140
#        58377
#        71415
#        87862
#        99327
#        112515
#        122032
#
# Disc length: 1783 seconds
#
# Revision: 7
# Processed by: cddbd v1.5.2PL0 Copyright (c) Steve Scherf et al.
# Submitted via: ExactAudioCopy v1.3
#
DISCID=7c06f50a
DTITLE=George Strait - If You Ain't Lovin' You Ain't Livin'
DYEAR=1988
DGENRE=Country
TTITLE0=If You Ain't Lovin' (You Ain't Livin')
TTITLE1=Under These Conditions
TTITLE2=Baby Blue
TTITLE3=Don't Mind If I Do
TTITLE4=Bigger Man Than Me
TTITLE5=Famous Last Words Of A Fool
TTITLE6=It's Too Late Now
TTITLE7=Is It That Time Again
TTITLE8=Let's Get Down To It
TTITLE9=Back To Bein' Me
EXTD=YEAR - 1988\nMCA Records  MCAD-42114
EXTT0=
EXTT1=
EXTT2=
EXTT3=
EXTT4=
EXTT5=
EXTT6=
EXTT7=
EXTT8=
EXTT9=
PLAYORDER=
